# xmcd CD database file
#
# Track frame offsets:
#	150
#	34381
#	67617
#	97545
#	127307
#	158254
#	187474
#	218963
#	255621
#
# Disc length: 3875 seconds
#
# Revision: 0
# Processed by: cddbd v1.5.2PL0 Copyright (c) Steve Scherf et al.
# Submitted via: CDex 1.70beta2
#
DISCID=780f2109
DTITLE=北京交響樂團 - 春天的故事（歌樂專輯）
DYEAR=2009
DGENRE=Country
TTITLE0=春天的故事
TTITLE1=在希望的田野上
TTITLE2=我愛你，中國
TTITLE3=我的中國心
TTITLE4=走進新時代
TTITLE5=長江之歌
TTITLE6=東方之珠
TTITLE7=青藏高原
TTITLE8=情系人民
EXTD=YEAR: 2009
EXTT0=
EXTT1=
EXTT2=
EXTT3=
EXTT4=
EXTT5=
EXTT6=
EXTT7=
EXTT8=
PLAYORDER=
